ISO-10303-21;
HEADER;
/* Generated by software containing ST-Developer
 * from STEP Tools, Inc. (www.steptools.com) 
 */

FILE_DESCRIPTION(
/* description */ (''),
/* implementation_level */ '2;1');

FILE_NAME(
/* name */ 'L_0806_2016Metric.step',
/* time_stamp */ '2026-09-26T13:05:16+02:00',
/* author */ (''),
/* organization */ (''),
/* preprocessor_version */ 'ST-DEVELOPER v20.1',
/* originating_system */ 'Autodesk Translation Framework v15.8.0.0',
/* authorisation */ '');

FILE_SCHEMA (('AUTOMOTIVE_DESIGN { 1 0 10303 214 3 1 1 }'));
ENDSEC;

DATA;
#10=MECHANICAL_DESIGN_GEOMETRIC_PRESENTATION_REPRESENTATION('',(#14,#15,
#16),#661);
#11=SHAPE_REPRESENTATION_RELATIONSHIP('SRR','None',#668,#12);
#12=ADVANCED_BREP_SHAPE_REPRESENTATION('',(#13),#660);
#13=MANIFOLD_SOLID_BREP('Body1',#377);
#14=STYLED_ITEM('',(#679),#373);
#15=STYLED_ITEM('',(#679),#374);
#16=STYLED_ITEM('',(#678),#13);
#17=PLANE('',#423);
#18=PLANE('',#424);
#19=PLANE('',#425);
#20=PLANE('',#426);
#21=PLANE('',#427);
#22=PLANE('',#428);
#23=PLANE('',#429);
#24=PLANE('',#430);
#25=PLANE('',#431);
#26=PLANE('',#432);
#27=LINE('',#565,#59);
#28=LINE('',#566,#60);
#29=LINE('',#580,#61);
#30=LINE('',#581,#62);
#31=LINE('',#583,#63);
#32=LINE('',#584,#64);
#33=LINE('',#598,#65);
#34=LINE('',#599,#66);
#35=LINE('',#613,#67);
#36=LINE('',#614,#68);
#37=LINE('',#616,#69);
#38=LINE('',#617,#70);
#39=LINE('',#619,#71);
#40=LINE('',#620,#72);
#41=LINE('',#622,#73);
#42=LINE('',#623,#74);
#43=LINE('',#625,#75);
#44=LINE('',#628,#76);
#45=LINE('',#630,#77);
#46=LINE('',#632,#78);
#47=LINE('',#634,#79);
#48=LINE('',#635,#80);
#49=LINE('',#639,#81);
#50=LINE('',#641,#82);
#51=LINE('',#642,#83);
#52=LINE('',#645,#84);
#53=LINE('',#647,#85);
#54=LINE('',#648,#86);
#55=LINE('',#650,#87);
#56=LINE('',#652,#88);
#57=LINE('',#654,#89);
#58=LINE('',#655,#90);
#59=VECTOR('',#449,10.);
#60=VECTOR('',#450,10.);
#61=VECTOR('',#465,10.);
#62=VECTOR('',#466,10.);
#63=VECTOR('',#469,10.);
#64=VECTOR('',#470,10.);
#65=VECTOR('',#485,10.);
#66=VECTOR('',#486,10.);
#67=VECTOR('',#501,10.);
#68=VECTOR('',#502,10.);
#69=VECTOR('',#505,10.);
#70=VECTOR('',#506,10.);
#71=VECTOR('',#509,10.);
#72=VECTOR('',#510,10.);
#73=VECTOR('',#513,10.);
#74=VECTOR('',#514,10.);
#75=VECTOR('',#517,10.);
#76=VECTOR('',#520,10.);
#77=VECTOR('',#521,10.);
#78=VECTOR('',#522,10.);
#79=VECTOR('',#523,10.);
#80=VECTOR('',#524,10.);
#81=VECTOR('',#529,10.);
#82=VECTOR('',#530,10.);
#83=VECTOR('',#531,10.);
#84=VECTOR('',#534,10.);
#85=VECTOR('',#535,10.);
#86=VECTOR('',#536,10.);
#87=VECTOR('',#539,10.);
#88=VECTOR('',#542,10.);
#89=VECTOR('',#545,10.);
#90=VECTOR('',#546,10.);
#91=CYLINDRICAL_SURFACE('',#396,0.1);
#92=CYLINDRICAL_SURFACE('',#403,0.1);
#93=CYLINDRICAL_SURFACE('',#405,0.02);
#94=CYLINDRICAL_SURFACE('',#411,0.1);
#95=CYLINDRICAL_SURFACE('',#418,0.1);
#96=CYLINDRICAL_SURFACE('',#420,0.02);
#97=CYLINDRICAL_SURFACE('',#421,0.02);
#98=CYLINDRICAL_SURFACE('',#422,0.02);
#99=FACE_OUTER_BOUND('',#121,.T.);
#100=FACE_OUTER_BOUND('',#122,.T.);
#101=FACE_OUTER_BOUND('',#123,.T.);
#102=FACE_OUTER_BOUND('',#124,.T.);
#103=FACE_OUTER_BOUND('',#125,.T.);
#104=FACE_OUTER_BOUND('',#126,.T.);
#105=FACE_OUTER_BOUND('',#127,.T.);
#106=FACE_OUTER_BOUND('',#128,.T.);
#107=FACE_OUTER_BOUND('',#129,.T.);
#108=FACE_OUTER_BOUND('',#130,.T.);
#109=FACE_OUTER_BOUND('',#131,.T.);
#110=FACE_OUTER_BOUND('',#132,.T.);
#111=FACE_OUTER_BOUND('',#133,.T.);
#112=FACE_OUTER_BOUND('',#134,.T.);
#113=FACE_OUTER_BOUND('',#135,.T.);
#114=FACE_OUTER_BOUND('',#136,.T.);
#115=FACE_OUTER_BOUND('',#137,.T.);
#116=FACE_OUTER_BOUND('',#138,.T.);
#117=FACE_OUTER_BOUND('',#139,.T.);
#118=FACE_OUTER_BOUND('',#140,.T.);
#119=FACE_OUTER_BOUND('',#141,.T.);
#120=FACE_OUTER_BOUND('',#142,.T.);
#121=EDGE_LOOP('',(#247,#248,#249,#250));
#122=EDGE_LOOP('',(#251,#252,#253,#254));
#123=EDGE_LOOP('',(#255,#256,#257,#258));
#124=EDGE_LOOP('',(#259,#260,#261,#262));
#125=EDGE_LOOP('',(#263,#264,#265,#266));
#126=EDGE_LOOP('',(#267,#268,#269,#270));
#127=EDGE_LOOP('',(#271,#272,#273,#274));
#128=EDGE_LOOP('',(#275,#276,#277,#278));
#129=EDGE_LOOP('',(#279,#280,#281,#282));
#130=EDGE_LOOP('',(#283,#284,#285,#286));
#131=EDGE_LOOP('',(#287,#288,#289,#290));
#132=EDGE_LOOP('',(#291,#292,#293,#294));
#133=EDGE_LOOP('',(#295,#296,#297,#298));
#134=EDGE_LOOP('',(#299,#300,#301,#302,#303,#304,#305,#306));
#135=EDGE_LOOP('',(#307,#308,#309,#310,#311,#312,#313,#314));
#136=EDGE_LOOP('',(#315,#316,#317,#318));
#137=EDGE_LOOP('',(#319,#320,#321,#322));
#138=EDGE_LOOP('',(#323,#324,#325,#326));
#139=EDGE_LOOP('',(#327,#328,#329,#330,#331,#332));
#140=EDGE_LOOP('',(#333,#334,#335,#336,#337,#338));
#141=EDGE_LOOP('',(#339,#340,#341,#342));
#142=EDGE_LOOP('',(#343,#344,#345,#346,#347,#348,#349,#350));
#143=CIRCLE('',#392,0.02);
#144=CIRCLE('',#393,0.1);
#145=CIRCLE('',#394,0.02);
#146=CIRCLE('',#395,0.0800000000000001);
#147=CIRCLE('',#397,0.1);
#148=CIRCLE('',#399,0.02);
#149=CIRCLE('',#400,0.1);
#150=CIRCLE('',#401,0.02);
#151=CIRCLE('',#402,0.0800000000000001);
#152=CIRCLE('',#404,0.1);
#153=CIRCLE('',#407,0.02);
#154=CIRCLE('',#408,0.1);
#155=CIRCLE('',#409,0.02);
#156=CIRCLE('',#410,0.0799999999999999);
#157=CIRCLE('',#412,0.1);
#158=CIRCLE('',#414,0.02);
#159=CIRCLE('',#415,0.1);
#160=CIRCLE('',#416,0.02);
#161=CIRCLE('',#417,0.0800000000000001);
#162=CIRCLE('',#419,0.1);
#163=VERTEX_POINT('',#553);
#164=VERTEX_POINT('',#554);
#165=VERTEX_POINT('',#556);
#166=VERTEX_POINT('',#558);
#167=VERTEX_POINT('',#562);
#168=VERTEX_POINT('',#563);
#169=VERTEX_POINT('',#568);
#170=VERTEX_POINT('',#569);
#171=VERTEX_POINT('',#571);
#172=VERTEX_POINT('',#573);
#173=VERTEX_POINT('',#577);
#174=VERTEX_POINT('',#578);
#175=VERTEX_POINT('',#586);
#176=VERTEX_POINT('',#587);
#177=VERTEX_POINT('',#589);
#178=VERTEX_POINT('',#591);
#179=VERTEX_POINT('',#595);
#180=VERTEX_POINT('',#596);
#181=VERTEX_POINT('',#601);
#182=VERTEX_POINT('',#602);
#183=VERTEX_POINT('',#604);
#184=VERTEX_POINT('',#606);
#185=VERTEX_POINT('',#610);
#186=VERTEX_POINT('',#611);
#187=VERTEX_POINT('',#627);
#188=VERTEX_POINT('',#629);
#189=VERTEX_POINT('',#631);
#190=VERTEX_POINT('',#633);
#191=VERTEX_POINT('',#638);
#192=VERTEX_POINT('',#640);
#193=VERTEX_POINT('',#644);
#194=VERTEX_POINT('',#646);
#195=EDGE_CURVE('',#163,#164,#143,.T.);
#196=EDGE_CURVE('',#165,#163,#144,.F.);
#197=EDGE_CURVE('',#166,#165,#145,.T.);
#198=EDGE_CURVE('',#166,#164,#146,.T.);
#199=EDGE_CURVE('',#167,#168,#147,.T.);
#200=EDGE_CURVE('',#168,#165,#27,.T.);
#201=EDGE_CURVE('',#163,#167,#28,.T.);
#202=EDGE_CURVE('',#169,#170,#148,.T.);
#203=EDGE_CURVE('',#171,#169,#149,.F.);
#204=EDGE_CURVE('',#172,#171,#150,.T.);
#205=EDGE_CURVE('',#172,#170,#151,.T.);
#206=EDGE_CURVE('',#173,#174,#152,.T.);
#207=EDGE_CURVE('',#174,#171,#29,.T.);
#208=EDGE_CURVE('',#169,#173,#30,.T.);
#209=EDGE_CURVE('',#164,#172,#31,.T.);
#210=EDGE_CURVE('',#171,#163,#32,.T.);
#211=EDGE_CURVE('',#175,#176,#153,.T.);
#212=EDGE_CURVE('',#177,#175,#154,.F.);
#213=EDGE_CURVE('',#178,#177,#155,.T.);
#214=EDGE_CURVE('',#178,#176,#156,.T.);
#215=EDGE_CURVE('',#179,#180,#157,.T.);
#216=EDGE_CURVE('',#180,#177,#33,.T.);
#217=EDGE_CURVE('',#175,#179,#34,.T.);
#218=EDGE_CURVE('',#181,#182,#158,.T.);
#219=EDGE_CURVE('',#183,#181,#159,.F.);
#220=EDGE_CURVE('',#184,#183,#160,.T.);
#221=EDGE_CURVE('',#184,#182,#161,.T.);
#222=EDGE_CURVE('',#185,#186,#162,.T.);
#223=EDGE_CURVE('',#186,#183,#35,.T.);
#224=EDGE_CURVE('',#181,#185,#36,.T.);
#225=EDGE_CURVE('',#170,#184,#37,.T.);
#226=EDGE_CURVE('',#183,#169,#38,.T.);
#227=EDGE_CURVE('',#182,#178,#39,.T.);
#228=EDGE_CURVE('',#177,#181,#40,.T.);
#229=EDGE_CURVE('',#176,#166,#41,.T.);
#230=EDGE_CURVE('',#165,#175,#42,.T.);
#231=EDGE_CURVE('',#167,#174,#43,.T.);
#232=EDGE_CURVE('',#187,#186,#44,.T.);
#233=EDGE_CURVE('',#187,#188,#45,.T.);
#234=EDGE_CURVE('',#188,#189,#46,.T.);
#235=EDGE_CURVE('',#189,#190,#47,.T.);
#236=EDGE_CURVE('',#173,#190,#48,.T.);
#237=EDGE_CURVE('',#190,#191,#49,.T.);
#238=EDGE_CURVE('',#189,#192,#50,.T.);
#239=EDGE_CURVE('',#191,#192,#51,.T.);
#240=EDGE_CURVE('',#193,#187,#52,.T.);
#241=EDGE_CURVE('',#194,#193,#53,.T.);
#242=EDGE_CURVE('',#194,#188,#54,.T.);
#243=EDGE_CURVE('',#192,#194,#55,.T.);
#244=EDGE_CURVE('',#191,#168,#56,.T.);
#245=EDGE_CURVE('',#179,#193,#57,.T.);
#246=EDGE_CURVE('',#185,#180,#58,.T.);
#247=ORIENTED_EDGE('',*,*,#195,.F.);
#248=ORIENTED_EDGE('',*,*,#196,.F.);
#249=ORIENTED_EDGE('',*,*,#197,.F.);
#250=ORIENTED_EDGE('',*,*,#198,.T.);
#251=ORIENTED_EDGE('',*,*,#199,.T.);
#252=ORIENTED_EDGE('',*,*,#200,.T.);
#253=ORIENTED_EDGE('',*,*,#196,.T.);
#254=ORIENTED_EDGE('',*,*,#201,.T.);
#255=ORIENTED_EDGE('',*,*,#202,.F.);
#256=ORIENTED_EDGE('',*,*,#203,.F.);
#257=ORIENTED_EDGE('',*,*,#204,.F.);
#258=ORIENTED_EDGE('',*,*,#205,.T.);
#259=ORIENTED_EDGE('',*,*,#206,.T.);
#260=ORIENTED_EDGE('',*,*,#207,.T.);
#261=ORIENTED_EDGE('',*,*,#203,.T.);
#262=ORIENTED_EDGE('',*,*,#208,.T.);
#263=ORIENTED_EDGE('',*,*,#195,.T.);
#264=ORIENTED_EDGE('',*,*,#209,.T.);
#265=ORIENTED_EDGE('',*,*,#204,.T.);
#266=ORIENTED_EDGE('',*,*,#210,.T.);
#267=ORIENTED_EDGE('',*,*,#211,.F.);
#268=ORIENTED_EDGE('',*,*,#212,.F.);
#269=ORIENTED_EDGE('',*,*,#213,.F.);
#270=ORIENTED_EDGE('',*,*,#214,.T.);
#271=ORIENTED_EDGE('',*,*,#215,.T.);
#272=ORIENTED_EDGE('',*,*,#216,.T.);
#273=ORIENTED_EDGE('',*,*,#212,.T.);
#274=ORIENTED_EDGE('',*,*,#217,.T.);
#275=ORIENTED_EDGE('',*,*,#218,.F.);
#276=ORIENTED_EDGE('',*,*,#219,.F.);
#277=ORIENTED_EDGE('',*,*,#220,.F.);
#278=ORIENTED_EDGE('',*,*,#221,.T.);
#279=ORIENTED_EDGE('',*,*,#222,.T.);
#280=ORIENTED_EDGE('',*,*,#223,.T.);
#281=ORIENTED_EDGE('',*,*,#219,.T.);
#282=ORIENTED_EDGE('',*,*,#224,.T.);
#283=ORIENTED_EDGE('',*,*,#202,.T.);
#284=ORIENTED_EDGE('',*,*,#225,.T.);
#285=ORIENTED_EDGE('',*,*,#220,.T.);
#286=ORIENTED_EDGE('',*,*,#226,.T.);
#287=ORIENTED_EDGE('',*,*,#218,.T.);
#288=ORIENTED_EDGE('',*,*,#227,.T.);
#289=ORIENTED_EDGE('',*,*,#213,.T.);
#290=ORIENTED_EDGE('',*,*,#228,.T.);
#291=ORIENTED_EDGE('',*,*,#211,.T.);
#292=ORIENTED_EDGE('',*,*,#229,.T.);
#293=ORIENTED_EDGE('',*,*,#197,.T.);
#294=ORIENTED_EDGE('',*,*,#230,.T.);
#295=ORIENTED_EDGE('',*,*,#201,.F.);
#296=ORIENTED_EDGE('',*,*,#210,.F.);
#297=ORIENTED_EDGE('',*,*,#207,.F.);
#298=ORIENTED_EDGE('',*,*,#231,.F.);
#299=ORIENTED_EDGE('',*,*,#208,.F.);
#300=ORIENTED_EDGE('',*,*,#226,.F.);
#301=ORIENTED_EDGE('',*,*,#223,.F.);
#302=ORIENTED_EDGE('',*,*,#232,.F.);
#303=ORIENTED_EDGE('',*,*,#233,.T.);
#304=ORIENTED_EDGE('',*,*,#234,.T.);
#305=ORIENTED_EDGE('',*,*,#235,.T.);
#306=ORIENTED_EDGE('',*,*,#236,.F.);
#307=ORIENTED_EDGE('',*,*,#221,.F.);
#308=ORIENTED_EDGE('',*,*,#225,.F.);
#309=ORIENTED_EDGE('',*,*,#205,.F.);
#310=ORIENTED_EDGE('',*,*,#209,.F.);
#311=ORIENTED_EDGE('',*,*,#198,.F.);
#312=ORIENTED_EDGE('',*,*,#229,.F.);
#313=ORIENTED_EDGE('',*,*,#214,.F.);
#314=ORIENTED_EDGE('',*,*,#227,.F.);
#315=ORIENTED_EDGE('',*,*,#237,.F.);
#316=ORIENTED_EDGE('',*,*,#235,.F.);
#317=ORIENTED_EDGE('',*,*,#238,.T.);
#318=ORIENTED_EDGE('',*,*,#239,.F.);
#319=ORIENTED_EDGE('',*,*,#240,.F.);
#320=ORIENTED_EDGE('',*,*,#241,.F.);
#321=ORIENTED_EDGE('',*,*,#242,.T.);
#322=ORIENTED_EDGE('',*,*,#233,.F.);
#323=ORIENTED_EDGE('',*,*,#242,.F.);
#324=ORIENTED_EDGE('',*,*,#243,.F.);
#325=ORIENTED_EDGE('',*,*,#238,.F.);
#326=ORIENTED_EDGE('',*,*,#234,.F.);
#327=ORIENTED_EDGE('',*,*,#199,.F.);
#328=ORIENTED_EDGE('',*,*,#231,.T.);
#329=ORIENTED_EDGE('',*,*,#206,.F.);
#330=ORIENTED_EDGE('',*,*,#236,.T.);
#331=ORIENTED_EDGE('',*,*,#237,.T.);
#332=ORIENTED_EDGE('',*,*,#244,.T.);
#333=ORIENTED_EDGE('',*,*,#215,.F.);
#334=ORIENTED_EDGE('',*,*,#245,.T.);
#335=ORIENTED_EDGE('',*,*,#240,.T.);
#336=ORIENTED_EDGE('',*,*,#232,.T.);
#337=ORIENTED_EDGE('',*,*,#222,.F.);
#338=ORIENTED_EDGE('',*,*,#246,.T.);
#339=ORIENTED_EDGE('',*,*,#216,.F.);
#340=ORIENTED_EDGE('',*,*,#246,.F.);
#341=ORIENTED_EDGE('',*,*,#224,.F.);
#342=ORIENTED_EDGE('',*,*,#228,.F.);
#343=ORIENTED_EDGE('',*,*,#200,.F.);
#344=ORIENTED_EDGE('',*,*,#244,.F.);
#345=ORIENTED_EDGE('',*,*,#239,.T.);
#346=ORIENTED_EDGE('',*,*,#243,.T.);
#347=ORIENTED_EDGE('',*,*,#241,.T.);
#348=ORIENTED_EDGE('',*,*,#245,.F.);
#349=ORIENTED_EDGE('',*,*,#217,.F.);
#350=ORIENTED_EDGE('',*,*,#230,.F.);
#351=TOROIDAL_SURFACE('',#391,0.0800000000000001,0.02);
#352=TOROIDAL_SURFACE('',#398,0.0800000000000001,0.02);
#353=TOROIDAL_SURFACE('',#406,0.0800000000000002,0.02);
#354=TOROIDAL_SURFACE('',#413,0.0799999999999998,0.02);
#355=ADVANCED_FACE('',(#99),#351,.T.);
#356=ADVANCED_FACE('',(#100),#91,.T.);
#357=ADVANCED_FACE('',(#101),#352,.T.);
#358=ADVANCED_FACE('',(#102),#92,.T.);
#359=ADVANCED_FACE('',(#103),#93,.T.);
#360=ADVANCED_FACE('',(#104),#353,.T.);
#361=ADVANCED_FACE('',(#105),#94,.T.);
#362=ADVANCED_FACE('',(#106),#354,.T.);
#363=ADVANCED_FACE('',(#107),#95,.T.);
#364=ADVANCED_FACE('',(#108),#96,.T.);
#365=ADVANCED_FACE('',(#109),#97,.T.);
#366=ADVANCED_FACE('',(#110),#98,.T.);
#367=ADVANCED_FACE('',(#111),#17,.T.);
#368=ADVANCED_FACE('',(#112),#18,.T.);
#369=ADVANCED_FACE('',(#113),#19,.T.);
#370=ADVANCED_FACE('',(#114),#20,.F.);
#371=ADVANCED_FACE('',(#115),#21,.F.);
#372=ADVANCED_FACE('',(#116),#22,.F.);
#373=ADVANCED_FACE('',(#117),#23,.F.);
#374=ADVANCED_FACE('',(#118),#24,.F.);
#375=ADVANCED_FACE('',(#119),#25,.T.);
#376=ADVANCED_FACE('',(#120),#26,.T.);
#377=CLOSED_SHELL('',(#355,#356,#357,#358,#359,#360,#361,#362,#363,#364,
#365,#366,#367,#368,#369,#370,#371,#372,#373,#374,#375,#376));
#378=DERIVED_UNIT_ELEMENT(#380,1.);
#379=DERIVED_UNIT_ELEMENT(#663,-3.);
#380=(
MASS_UNIT()
NAMED_UNIT(*)
SI_UNIT(.KILO.,.GRAM.)
);
#381=DERIVED_UNIT((#378,#379));
#382=MEASURE_REPRESENTATION_ITEM('density measure',
POSITIVE_RATIO_MEASURE(1060.),#381);
#383=PROPERTY_DEFINITION_REPRESENTATION(#388,#385);
#384=PROPERTY_DEFINITION_REPRESENTATION(#389,#386);
#385=REPRESENTATION('material name',(#387),#660);
#386=REPRESENTATION('density',(#382),#660);
#387=DESCRIPTIVE_REPRESENTATION_ITEM('ABS Plastic','ABS Plastic');
#388=PROPERTY_DEFINITION('material property','material name',#670);
#389=PROPERTY_DEFINITION('material property','density of part',#670);
#390=AXIS2_PLACEMENT_3D('',#551,#433,#434);
#391=AXIS2_PLACEMENT_3D('',#552,#435,#436);
#392=AXIS2_PLACEMENT_3D('',#555,#437,#438);
#393=AXIS2_PLACEMENT_3D('',#557,#439,#440);
#394=AXIS2_PLACEMENT_3D('',#559,#441,#442);
#395=AXIS2_PLACEMENT_3D('',#560,#443,#444);
#396=AXIS2_PLACEMENT_3D('',#561,#445,#446);
#397=AXIS2_PLACEMENT_3D('',#564,#447,#448);
#398=AXIS2_PLACEMENT_3D('',#567,#451,#452);
#399=AXIS2_PLACEMENT_3D('',#570,#453,#454);
#400=AXIS2_PLACEMENT_3D('',#572,#455,#456);
#401=AXIS2_PLACEMENT_3D('',#574,#457,#458);
#402=AXIS2_PLACEMENT_3D('',#575,#459,#460);
#403=AXIS2_PLACEMENT_3D('',#576,#461,#462);
#404=AXIS2_PLACEMENT_3D('',#579,#463,#464);
#405=AXIS2_PLACEMENT_3D('',#582,#467,#468);
#406=AXIS2_PLACEMENT_3D('',#585,#471,#472);
#407=AXIS2_PLACEMENT_3D('',#588,#473,#474);
#408=AXIS2_PLACEMENT_3D('',#590,#475,#476);
#409=AXIS2_PLACEMENT_3D('',#592,#477,#478);
#410=AXIS2_PLACEMENT_3D('',#593,#479,#480);
#411=AXIS2_PLACEMENT_3D('',#594,#481,#482);
#412=AXIS2_PLACEMENT_3D('',#597,#483,#484);
#413=AXIS2_PLACEMENT_3D('',#600,#487,#488);
#414=AXIS2_PLACEMENT_3D('',#603,#489,#490);
#415=AXIS2_PLACEMENT_3D('',#605,#491,#492);
#416=AXIS2_PLACEMENT_3D('',#607,#493,#494);
#417=AXIS2_PLACEMENT_3D('',#608,#495,#496);
#418=AXIS2_PLACEMENT_3D('',#609,#497,#498);
#419=AXIS2_PLACEMENT_3D('',#612,#499,#500);
#420=AXIS2_PLACEMENT_3D('',#615,#503,#504);
#421=AXIS2_PLACEMENT_3D('',#618,#507,#508);
#422=AXIS2_PLACEMENT_3D('',#621,#511,#512);
#423=AXIS2_PLACEMENT_3D('',#624,#515,#516);
#424=AXIS2_PLACEMENT_3D('',#626,#518,#519);
#425=AXIS2_PLACEMENT_3D('',#636,#525,#526);
#426=AXIS2_PLACEMENT_3D('',#637,#527,#528);
#427=AXIS2_PLACEMENT_3D('',#643,#532,#533);
#428=AXIS2_PLACEMENT_3D('',#649,#537,#538);
#429=AXIS2_PLACEMENT_3D('',#651,#540,#541);
#430=AXIS2_PLACEMENT_3D('',#653,#543,#544);
#431=AXIS2_PLACEMENT_3D('',#656,#547,#548);
#432=AXIS2_PLACEMENT_3D('',#657,#549,#550);
#433=DIRECTION('axis',(0.,0.,1.));
#434=DIRECTION('refdir',(1.,0.,0.));
#435=DIRECTION('center_axis',(0.,1.,0.));
#436=DIRECTION('ref_axis',(0.,0.,1.));
#437=DIRECTION('center_axis',(0.,0.,1.));
#438=DIRECTION('ref_axis',(1.,0.,0.));
#439=DIRECTION('center_axis',(0.,1.,0.));
#440=DIRECTION('ref_axis',(0.,0.,-1.));
#441=DIRECTION('center_axis',(-1.,0.,0.));
#442=DIRECTION('ref_axis',(0.,1.,0.));
#443=DIRECTION('center_axis',(0.,-1.,0.));
#444=DIRECTION('ref_axis',(0.707106781186548,0.,-0.707106781186548));
#445=DIRECTION('center_axis',(0.,1.,0.));
#446=DIRECTION('ref_axis',(0.707106781186548,0.,-0.707106781186548));
#447=DIRECTION('center_axis',(0.,1.,0.));
#448=DIRECTION('ref_axis',(0.707106781186548,0.,-0.707106781186548));
#449=DIRECTION('',(0.,1.,0.));
#450=DIRECTION('',(0.,-1.,0.));
#451=DIRECTION('center_axis',(0.,1.,0.));
#452=DIRECTION('ref_axis',(0.,0.,1.));
#453=DIRECTION('center_axis',(-1.,0.,0.));
#454=DIRECTION('ref_axis',(0.,0.,1.));
#455=DIRECTION('center_axis',(0.,1.,0.));
#456=DIRECTION('ref_axis',(1.,0.,0.));
#457=DIRECTION('center_axis',(0.,0.,-1.));
#458=DIRECTION('ref_axis',(0.,1.,0.));
#459=DIRECTION('center_axis',(0.,-1.,0.));
#460=DIRECTION('ref_axis',(0.707106781186548,0.,0.707106781186548));
#461=DIRECTION('center_axis',(0.,1.,0.));
#462=DIRECTION('ref_axis',(0.707106781186548,0.,0.707106781186548));
#463=DIRECTION('center_axis',(0.,1.,0.));
#464=DIRECTION('ref_axis',(0.707106781186548,0.,0.707106781186548));
#465=DIRECTION('',(0.,1.,0.));
#466=DIRECTION('',(0.,-1.,0.));
#467=DIRECTION('center_axis',(0.,0.,-1.));
#468=DIRECTION('ref_axis',(0.707106781186548,0.707106781186548,0.));
#469=DIRECTION('',(0.,0.,1.));
#470=DIRECTION('',(0.,0.,-1.));
#471=DIRECTION('center_axis',(0.,1.,0.));
#472=DIRECTION('ref_axis',(0.,0.,1.));
#473=DIRECTION('center_axis',(1.,0.,0.));
#474=DIRECTION('ref_axis',(0.,0.,-1.));
#475=DIRECTION('center_axis',(0.,1.,0.));
#476=DIRECTION('ref_axis',(-1.,0.,0.));
#477=DIRECTION('center_axis',(0.,0.,1.));
#478=DIRECTION('ref_axis',(0.,1.,0.));
#479=DIRECTION('center_axis',(0.,-1.,0.));
#480=DIRECTION('ref_axis',(-0.707106781186548,0.,-0.707106781186548));
#481=DIRECTION('center_axis',(0.,1.,0.));
#482=DIRECTION('ref_axis',(-0.707106781186548,0.,-0.707106781186548));
#483=DIRECTION('center_axis',(0.,1.,0.));
#484=DIRECTION('ref_axis',(-0.707106781186548,0.,-0.707106781186548));
#485=DIRECTION('',(0.,1.,0.));
#486=DIRECTION('',(0.,-1.,0.));
#487=DIRECTION('center_axis',(0.,1.,0.));
#488=DIRECTION('ref_axis',(0.,0.,1.));
#489=DIRECTION('center_axis',(0.,0.,-1.));
#490=DIRECTION('ref_axis',(-1.,0.,0.));
#491=DIRECTION('center_axis',(0.,1.,0.));
#492=DIRECTION('ref_axis',(0.,0.,1.));
#493=DIRECTION('center_axis',(1.,0.,0.));
#494=DIRECTION('ref_axis',(0.,1.,0.));
#495=DIRECTION('center_axis',(0.,-1.,0.));
#496=DIRECTION('ref_axis',(-0.707106781186546,0.,0.707106781186549));
#497=DIRECTION('center_axis',(0.,1.,0.));
#498=DIRECTION('ref_axis',(-0.707106781186547,0.,0.707106781186548));
#499=DIRECTION('center_axis',(0.,1.,0.));
#500=DIRECTION('ref_axis',(-0.707106781186547,0.,0.707106781186548));
#501=DIRECTION('',(0.,1.,0.));
#502=DIRECTION('',(0.,-1.,0.));
#503=DIRECTION('center_axis',(1.,0.,0.));
#504=DIRECTION('ref_axis',(0.,0.707106781186548,0.707106781186548));
#505=DIRECTION('',(-1.,0.,0.));
#506=DIRECTION('',(1.,0.,0.));
#507=DIRECTION('center_axis',(8.67361737988403E-17,0.,1.));
#508=DIRECTION('ref_axis',(-0.707106781186548,0.707106781186548,0.));
#509=DIRECTION('',(-8.67361737988403E-17,0.,-1.));
#510=DIRECTION('',(8.67361737988403E-17,0.,1.));
#511=DIRECTION('center_axis',(-1.,0.,1.38777878078145E-16));
#512=DIRECTION('ref_axis',(0.,0.707106781186548,-0.707106781186548));
#513=DIRECTION('',(1.,0.,-1.38777878078145E-16));
#514=DIRECTION('',(-1.,0.,1.38777878078145E-16));
#515=DIRECTION('center_axis',(1.,0.,0.));
#516=DIRECTION('ref_axis',(0.,0.,-1.));
#517=DIRECTION('',(0.,0.,1.));
#518=DIRECTION('center_axis',(0.,0.,1.));
#519=DIRECTION('ref_axis',(1.,0.,0.));
#520=DIRECTION('',(-1.,0.,0.));
#521=DIRECTION('',(0.,1.,0.));
#522=DIRECTION('',(1.,0.,0.));
#523=DIRECTION('',(0.,-1.,0.));
#524=DIRECTION('',(-1.,0.,0.));
#525=DIRECTION('center_axis',(0.,1.,0.));
#526=DIRECTION('ref_axis',(0.,0.,1.));
#527=DIRECTION('center_axis',(1.,0.,-8.67361737988403E-17));
#528=DIRECTION('ref_axis',(-8.67361737988403E-17,0.,-1.));
#529=DIRECTION('',(-8.67361737988403E-17,0.,-1.));
#530=DIRECTION('',(-8.67361737988403E-17,0.,-1.));
#531=DIRECTION('',(0.,1.,0.));
#532=DIRECTION('center_axis',(-1.,0.,8.67361737988403E-17));
#533=DIRECTION('ref_axis',(8.67361737988403E-17,0.,1.));
#534=DIRECTION('',(8.67361737988403E-17,0.,1.));
#535=DIRECTION('',(0.,-1.,0.));
#536=DIRECTION('',(8.67361737988403E-17,0.,1.));
#537=DIRECTION('center_axis',(0.,1.,0.));
#538=DIRECTION('ref_axis',(0.,0.,1.));
#539=DIRECTION('',(-1.,0.,1.38777878078145E-16));
#540=DIRECTION('center_axis',(0.,1.,0.));
#541=DIRECTION('ref_axis',(1.,0.,0.));
#542=DIRECTION('',(1.,0.,-1.38777878078145E-16));
#543=DIRECTION('center_axis',(0.,1.,0.));
#544=DIRECTION('ref_axis',(1.,0.,0.));
#545=DIRECTION('',(1.,0.,-1.38777878078145E-16));
#546=DIRECTION('',(-8.67361737988403E-17,0.,-1.));
#547=DIRECTION('center_axis',(-1.,0.,8.67361737988403E-17));
#548=DIRECTION('ref_axis',(8.67361737988403E-17,0.,1.));
#549=DIRECTION('center_axis',(-1.38777878078145E-16,0.,-1.));
#550=DIRECTION('ref_axis',(-1.,0.,1.38777878078145E-16));
#551=CARTESIAN_POINT('',(0.,0.,0.));
#552=CARTESIAN_POINT('Origin',(0.9,0.78,-0.7));
#553=CARTESIAN_POINT('',(1.,0.78,-0.7));
#554=CARTESIAN_POINT('',(0.98,0.8,-0.7));
#555=CARTESIAN_POINT('Origin',(0.98,0.78,-0.7));
#556=CARTESIAN_POINT('',(0.9,0.78,-0.8));
#557=CARTESIAN_POINT('Origin',(0.9,0.78,-0.7));
#558=CARTESIAN_POINT('',(0.9,0.8,-0.78));
#559=CARTESIAN_POINT('Origin',(0.9,0.78,-0.78));
#560=CARTESIAN_POINT('Origin',(0.9,0.8,-0.7));
#561=CARTESIAN_POINT('Origin',(0.9,0.,-0.7));
#562=CARTESIAN_POINT('',(1.,0.,-0.7));
#563=CARTESIAN_POINT('',(0.9,0.,-0.8));
#564=CARTESIAN_POINT('Origin',(0.9,0.,-0.7));
#565=CARTESIAN_POINT('',(0.9,0.,-0.8));
#566=CARTESIAN_POINT('',(1.,0.,-0.7));
#567=CARTESIAN_POINT('Origin',(0.9,0.78,0.7));
#568=CARTESIAN_POINT('',(0.9,0.78,0.8));
#569=CARTESIAN_POINT('',(0.9,0.8,0.78));
#570=CARTESIAN_POINT('Origin',(0.9,0.78,0.78));
#571=CARTESIAN_POINT('',(1.,0.78,0.7));
#572=CARTESIAN_POINT('Origin',(0.9,0.78,0.7));
#573=CARTESIAN_POINT('',(0.98,0.8,0.7));
#574=CARTESIAN_POINT('Origin',(0.98,0.78,0.7));
#575=CARTESIAN_POINT('Origin',(0.9,0.8,0.7));
#576=CARTESIAN_POINT('Origin',(0.9,0.,0.7));
#577=CARTESIAN_POINT('',(0.9,0.,0.8));
#578=CARTESIAN_POINT('',(1.,0.,0.7));
#579=CARTESIAN_POINT('Origin',(0.9,0.,0.7));
#580=CARTESIAN_POINT('',(1.,0.,0.7));
#581=CARTESIAN_POINT('',(0.9,0.,0.8));
#582=CARTESIAN_POINT('Origin',(0.98,0.78,0.4));
#583=CARTESIAN_POINT('',(0.98,0.8,0.4));
#584=CARTESIAN_POINT('',(1.,0.78,0.4));
#585=CARTESIAN_POINT('Origin',(-0.9,0.78,-0.7));
#586=CARTESIAN_POINT('',(-0.9,0.78,-0.8));
#587=CARTESIAN_POINT('',(-0.9,0.8,-0.78));
#588=CARTESIAN_POINT('Origin',(-0.9,0.78,-0.78));
#589=CARTESIAN_POINT('',(-1.,0.78,-0.7));
#590=CARTESIAN_POINT('Origin',(-0.9,0.78,-0.7));
#591=CARTESIAN_POINT('',(-0.98,0.8,-0.7));
#592=CARTESIAN_POINT('Origin',(-0.98,0.78,-0.7));
#593=CARTESIAN_POINT('Origin',(-0.9,0.8,-0.7));
#594=CARTESIAN_POINT('Origin',(-0.9,0.,-0.7));
#595=CARTESIAN_POINT('',(-0.9,0.,-0.8));
#596=CARTESIAN_POINT('',(-1.,0.,-0.7));
#597=CARTESIAN_POINT('Origin',(-0.9,0.,-0.7));
#598=CARTESIAN_POINT('',(-1.,0.,-0.7));
#599=CARTESIAN_POINT('',(-0.9,0.,-0.8));
#600=CARTESIAN_POINT('Origin',(-0.9,0.78,0.7));
#601=CARTESIAN_POINT('',(-1.,0.78,0.7));
#602=CARTESIAN_POINT('',(-0.98,0.8,0.7));
#603=CARTESIAN_POINT('Origin',(-0.98,0.78,0.7));
#604=CARTESIAN_POINT('',(-0.9,0.78,0.8));
#605=CARTESIAN_POINT('Origin',(-0.9,0.78,0.7));
#606=CARTESIAN_POINT('',(-0.9,0.8,0.78));
#607=CARTESIAN_POINT('Origin',(-0.9,0.78,0.78));
#608=CARTESIAN_POINT('Origin',(-0.9,0.8,0.7));
#609=CARTESIAN_POINT('Origin',(-0.9,0.,0.7));
#610=CARTESIAN_POINT('',(-1.,0.,0.7));
#611=CARTESIAN_POINT('',(-0.9,0.,0.8));
#612=CARTESIAN_POINT('Origin',(-0.9,0.,0.7));
#613=CARTESIAN_POINT('',(-0.9,0.,0.8));
#614=CARTESIAN_POINT('',(-1.,0.,0.7));
#615=CARTESIAN_POINT('Origin',(-0.5,0.78,0.78));
#616=CARTESIAN_POINT('',(-0.5,0.8,0.78));
#617=CARTESIAN_POINT('',(-0.5,0.78,0.8));
#618=CARTESIAN_POINT('Origin',(-0.98,0.78,-0.4));
#619=CARTESIAN_POINT('',(-0.98,0.8,-0.4));
#620=CARTESIAN_POINT('',(-1.,0.78,-0.4));
#621=CARTESIAN_POINT('Origin',(0.5,0.78,-0.78));
#622=CARTESIAN_POINT('',(0.5,0.8,-0.78));
#623=CARTESIAN_POINT('',(0.5,0.78,-0.8));
#624=CARTESIAN_POINT('Origin',(1.,0.,0.8));
#625=CARTESIAN_POINT('',(1.,0.,-0.8));
#626=CARTESIAN_POINT('Origin',(-1.,0.,0.8));
#627=CARTESIAN_POINT('',(-0.3,0.,0.8));
#628=CARTESIAN_POINT('',(1.,0.,0.8));
#629=CARTESIAN_POINT('',(-0.3,0.04,0.8));
#630=CARTESIAN_POINT('',(-0.3,0.,0.8));
#631=CARTESIAN_POINT('',(0.3,0.04,0.8));
#632=CARTESIAN_POINT('',(-0.5,0.04,0.8));
#633=CARTESIAN_POINT('',(0.3,0.,0.8));
#634=CARTESIAN_POINT('',(0.3,0.,0.8));
#635=CARTESIAN_POINT('',(1.,0.,0.8));
#636=CARTESIAN_POINT('Origin',(1.38777878078145E-16,0.8,-1.38777878078145E-16));
#637=CARTESIAN_POINT('Origin',(0.3,0.,0.8));
#638=CARTESIAN_POINT('',(0.3,0.,-0.8));
#639=CARTESIAN_POINT('',(0.3,0.,0.4));
#640=CARTESIAN_POINT('',(0.3,0.04,-0.8));
#641=CARTESIAN_POINT('',(0.3,0.04,-0.8));
#642=CARTESIAN_POINT('',(0.3,0.,-0.8));
#643=CARTESIAN_POINT('Origin',(-0.3,0.,-0.8));
#644=CARTESIAN_POINT('',(-0.3,0.,-0.8));
#645=CARTESIAN_POINT('',(-0.3,0.,-0.4));
#646=CARTESIAN_POINT('',(-0.3,0.04,-0.8));
#647=CARTESIAN_POINT('',(-0.3,0.,-0.8));
#648=CARTESIAN_POINT('',(-0.3,0.04,-0.8));
#649=CARTESIAN_POINT('Origin',(-3.46944695195361E-17,0.04,0.));
#650=CARTESIAN_POINT('',(0.5,0.04,-0.8));
#651=CARTESIAN_POINT('Origin',(1.38777878078145E-16,0.,-1.38777878078145E-16));
#652=CARTESIAN_POINT('',(-1.,0.,-0.8));
#653=CARTESIAN_POINT('Origin',(1.38777878078145E-16,0.,-1.38777878078145E-16));
#654=CARTESIAN_POINT('',(-1.,0.,-0.8));
#655=CARTESIAN_POINT('',(-1.,0.,0.8));
#656=CARTESIAN_POINT('Origin',(-1.,0.,-0.8));
#657=CARTESIAN_POINT('Origin',(1.,0.,-0.8));
#658=UNCERTAINTY_MEASURE_WITH_UNIT(LENGTH_MEASURE(0.01),#662,
'DISTANCE_ACCURACY_VALUE',
'Maximum model space distance between geometric entities at asserted c
onnectivities');
#659=UNCERTAINTY_MEASURE_WITH_UNIT(LENGTH_MEASURE(0.01),#662,
'DISTANCE_ACCURACY_VALUE',
'Maximum model space distance between geometric entities at asserted c
onnectivities');
#660=(
GEOMETRIC_REPRESENTATION_CONTEXT(3)
GLOBAL_UNCERTAINTY_ASSIGNED_CONTEXT((#658))
GLOBAL_UNIT_ASSIGNED_CONTEXT((#662,#664,#665))
REPRESENTATION_CONTEXT('','3D')
);
#661=(
GEOMETRIC_REPRESENTATION_CONTEXT(3)
GLOBAL_UNCERTAINTY_ASSIGNED_CONTEXT((#659))
GLOBAL_UNIT_ASSIGNED_CONTEXT((#662,#664,#665))
REPRESENTATION_CONTEXT('','3D')
);
#662=(
LENGTH_UNIT()
NAMED_UNIT(*)
SI_UNIT(.MILLI.,.METRE.)
);
#663=(
LENGTH_UNIT()
NAMED_UNIT(*)
SI_UNIT($,.METRE.)
);
#664=(
NAMED_UNIT(*)
PLANE_ANGLE_UNIT()
SI_UNIT($,.RADIAN.)
);
#665=(
NAMED_UNIT(*)
SI_UNIT($,.STERADIAN.)
SOLID_ANGLE_UNIT()
);
#666=SHAPE_DEFINITION_REPRESENTATION(#667,#668);
#667=PRODUCT_DEFINITION_SHAPE('',$,#670);
#668=SHAPE_REPRESENTATION('',(#390),#660);
#669=PRODUCT_DEFINITION_CONTEXT('part definition',#674,'design');
#670=PRODUCT_DEFINITION('L_0806_2016Metric','L_0806_2016Metric v1',#671,
#669);
#671=PRODUCT_DEFINITION_FORMATION('',$,#676);
#672=PRODUCT_RELATED_PRODUCT_CATEGORY('L_0806_2016Metric v1',
'L_0806_2016Metric v1',(#676));
#673=APPLICATION_PROTOCOL_DEFINITION('international standard',
'automotive_design',2009,#674);
#674=APPLICATION_CONTEXT(
'Core Data for Automotive Mechanical Design Process');
#675=PRODUCT_CONTEXT('part definition',#674,'mechanical');
#676=PRODUCT('L_0806_2016Metric','L_0806_2016Metric v1',$,(#675));
#677=PRESENTATION_STYLE_ASSIGNMENT((#680));
#678=PRESENTATION_STYLE_ASSIGNMENT((#681));
#679=PRESENTATION_STYLE_ASSIGNMENT((#682));
#680=SURFACE_STYLE_USAGE(.BOTH.,#683);
#681=SURFACE_STYLE_USAGE(.BOTH.,#684);
#682=SURFACE_STYLE_USAGE(.BOTH.,#685);
#683=SURFACE_SIDE_STYLE('',(#686));
#684=SURFACE_SIDE_STYLE('',(#687));
#685=SURFACE_SIDE_STYLE('',(#688));
#686=SURFACE_STYLE_FILL_AREA(#689);
#687=SURFACE_STYLE_FILL_AREA(#690);
#688=SURFACE_STYLE_FILL_AREA(#691);
#689=FILL_AREA_STYLE('ABS (White)',(#692));
#690=FILL_AREA_STYLE('Opaque(70,70,70)',(#693));
#691=FILL_AREA_STYLE('Opaque(210,209,199)',(#694));
#692=FILL_AREA_STYLE_COLOUR('ABS (White)',#695);
#693=FILL_AREA_STYLE_COLOUR('Opaque(70,70,70)',#696);
#694=FILL_AREA_STYLE_COLOUR('Opaque(210,209,199)',#697);
#695=COLOUR_RGB('ABS (White)',0.964705882352941,0.964705882352941,0.952941176470588);
#696=COLOUR_RGB('Opaque(70,70,70)',0.274509803921569,0.274509803921569,
0.274509803921569);
#697=COLOUR_RGB('Opaque(210,209,199)',0.823529411764706,0.819607843137255,
0.780392156862745);
ENDSEC;
END-ISO-10303-21;
